ffmpeg version 4.2.7-0ubuntu0.1 Copyright (c) 2000-2022 the FFmpeg developers
  built with gcc 9 (Ubuntu 9.4.0-1ubuntu1~20.04.1)
  configuration: --prefix=/usr --extra-version=0ubuntu0.1 --toolchain=hardened --libdir=/usr/lib/x86_64-linux-gnu --incdir=/usr/include/x86_64-linux-gnu --arch=amd64 --enable-gpl --disable-stripping --enable-avresample --disable-filter=resample --enable-avisynth --enable-gnutls --enable-ladspa --enable-libaom --enable-libass --enable-libbluray --enable-libbs2b --enable-libcaca --enable-libcdio --enable-libcodec2 --enable-libflite --enable-libfontconfig --enable-libfreetype --enable-libfribidi --enable-libgme --enable-libgsm --enable-libjack --enable-libmp3lame --enable-libmysofa --enable-libopenjpeg --enable-libopenmpt --enable-libopus --enable-libpulse --enable-librsvg --enable-librubberband --enable-libshine --enable-libsnappy --enable-libsoxr --enable-libspeex --enable-libssh --enable-libtheora --enable-libtwolame --enable-libvidstab --enable-libvorbis --enable-libvpx --enable-libwavpack --enable-libwebp --enable-libx265 --enable-libxml2 --enable-libxvid --enable-libzmq --enable-libzvbi --enable-lv2 --enable-omx --enable-openal --enable-opencl --enable-opengl --enable-sdl2 --enable-libdc1394 --enable-libdrm --enable-libiec61883 --enable-nvenc --enable-chromaprint --enable-frei0r --enable-libx264 --enable-shared
  libavutil      56. 31.100 / 56. 31.100
  libavcodec     58. 54.100 / 58. 54.100
  libavformat    58. 29.100 / 58. 29.100
  libavdevice    58.  8.100 / 58.  8.100
  libavfilter     7. 57.100 /  7. 57.100
  libavresample   4.  0.  0 /  4.  0.  0
  libswscale      5.  5.100 /  5.  5.100
  libswresample   3.  5.100 /  3.  5.100
  libpostproc    55.  5.100 / 55.  5.100
Routing option strict to both codec and muxer layer
[h264 @ 0x558312570800] Reinit context to 1280x720, pix_fmt: yuv420p
Input #0, mov,mp4,m4a,3gp,3g2,mj2, from '/var/www/html/project/media/video/original/vlc-record-2023-01-27-14h44m38s-Il_mio_video_3.mp4-.mp4':
  Metadata:
    major_brand     : isom
    minor_version   : 0
    compatible_brands: mp41avc1
    creation_time   : 2023-01-27T13:48:33.000000Z
    playback_requirements: QuickTime 6.0 or greater
    playback_requirements-eng: QuickTime 6.0 or greater
    encoder         : vlc 3.0.12 stream output
    encoder-eng     : vlc 3.0.12 stream output
  Duration: 00:03:52.04, start: 0.000000, bitrate: 10206 kb/s
    Stream #0:0(eng): Audio: aac (LC) (mp4a / 0x6134706D), 44100 Hz, stereo, fltp, 159 kb/s (default)
    Metadata:
      creation_time   : 2023-01-27T13:48:33.000000Z
      handler_name    : SoundHandler
    Stream #0:1(eng): Video: h264 (Baseline), 1 reference frame (avc1 / 0x31637661), yuv420p(tv, bt2020nc/bt2020/arib-std-b67, left), 1280x720, 10041 kb/s, 25 fps, 25 tbr, 90k tbn, 180k tbc (default)
    Metadata:
      creation_time   : 2023-01-27T13:48:33.000000Z
      handler_name    : VideoHandler
Input #1, png_pipe, from '/var/www/html/project/static/images/templates/logo.png':
  Duration: N/A, bitrate: N/A
    Stream #1:0: Video: png, 1 reference frame, rgba(pc), 1920x1080 [SAR 2835:2835 DAR 16:9], 25 tbr, 25 tbn, 25 tbc
[Parsed_scale_0 @ 0x5583125b82c0] w:1280 h:720 flags:'bilinear' interl:0
[Parsed_scale_2 @ 0x5583125ba0c0] w:1280 h:720 flags:'bilinear' interl:0
Stream mapping:
  Stream #0:1 (h264) -> scale (graph 0)
  Stream #1:0 (png) -> scale (graph 0)
  overlay (graph 0) -> Stream #0:0 (libx264)
  Stream #0:0 -> #0:1 (aac (native) -> aac (native))
Press [q] to stop, [?] for help
[h264 @ 0x5583125b4940] Reinit context to 1280x720, pix_fmt: yuv420p
[graph_1_in_0_0 @ 0x5583127ab900] tb:1/44100 samplefmt:fltp samplerate:44100 chlayout:0x3
[Parsed_scale_0 @ 0x5583127acd00] w:1280 h:720 flags:'bilinear' interl:0
[Parsed_scale_2 @ 0x558312f787c0] w:1280 h:720 flags:'bilinear' interl:0
[graph 0 input from stream 0:1 @ 0x558312f7ac00] w:1280 h:720 pixfmt:yuv420p tb:1/90000 fr:25/1 sar:0/1 sws_param:flags=2
[graph 0 input from stream 1:0 @ 0x558312f7bc40] w:1920 h:1080 pixfmt:rgba tb:1/25 fr:25/1 sar:2835/2835 sws_param:flags=2
[Parsed_scale_0 @ 0x5583127acd00] w:1280 h:720 fmt:yuv420p sar:0/1 -> w:1280 h:720 fmt:yuv420p sar:0/1 flags:0x2
[Parsed_setsar_1 @ 0x558312f753c0] w:1280 h:720 sar:0/1 dar:16/9 -> sar:1/1 dar:16/9
[Parsed_scale_2 @ 0x558312f787c0] w:1920 h:1080 fmt:rgba sar:2835/2835 -> w:1280 h:720 fmt:yuva420p sar:1/1 flags:0x2
[Parsed_setsar_3 @ 0x558312f79280] w:1280 h:720 sar:1/1 dar:16/9 -> sar:1/1 dar:16/9
[Parsed_overlay_4 @ 0x558312f79e80] main w:1280 h:720 fmt:yuv420p overlay w:1280 h:720 fmt:yuva420p
[Parsed_overlay_4 @ 0x558312f79e80] [framesync @ 0x558312f79fa8] Selected 1/90000 time base
[Parsed_overlay_4 @ 0x558312f79e80] [framesync @ 0x558312f79fa8] Sync level 2
[libx264 @ 0x55831258bbc0] using SAR=1/1
[libx264 @ 0x55831258bbc0] using cpu capabilities: MMX2 SSE2Fast SSSE3 SSE4.2 AVX FMA3 BMI2 AVX2
[libx264 @ 0x55831258bbc0] profile High, level 3.1
[libx264 @ 0x55831258bbc0] 264 - core 155 r2917 0a84d98 - H.264/MPEG-4 AVC codec - Copyleft 2003-2018 - http://www.videolan.org/x264.html - options: cabac=1 ref=1 deblock=1:0:0 analyse=0x3:0x113 me=hex subme=2 psy=1 psy_rd=1.00:0.00 mixed_ref=0 me_range=16 chroma_me=1 trellis=0 8x8dct=1 cqm=0 deadzone=21,11 fast_pskip=1 chroma_qp_offset=0 threads=22 lookahead_threads=5 sliced_threads=0 nr=0 decimate=1 interlaced=0 bluray_compat=0 constrained_intra=0 bframes=3 b_pyramid=2 b_adapt=1 b_bias=0 direct=1 weightb=1 open_gop=0 weightp=1 keyint=250 keyint_min=25 scenecut=40 intra_refresh=0 rc_lookahead=10 rc=crf mbtree=1 crf=18.0 qcomp=0.60 qpmin=0 qpmax=69 qpstep=4 ip_ratio=1.40 aq=1:1.00
Output #0, mp4, to '/var/www/html/project/media/video/watermarks/vlc-record-2023-01-27-14h44m38s-Il_mio_video_3.mp4-.mp4':
  Metadata:
    major_brand     : isom
    minor_version   : 0
    compatible_brands: mp41avc1
    encoder         : Lavf58.29.100
    playback_requirements: QuickTime 6.0 or greater
    playback_requirements-eng: QuickTime 6.0 or greater
    Stream #0:0: Video: h264 (libx264), 1 reference frame (avc1 / 0x31637661), yuv420p, 1280x720 [SAR 1:1 DAR 16:9], q=-1--1, 25 fps, 12800 tbn, 25 tbc (default)
    Metadata:
      encoder         : Lavc58.54.100 libx264
    Side data:
      cpb: bitrate max/min/avg: 0/0/0 buffer size: 0 vbv_delay: -1
    Stream #0:1(eng): Audio: aac (LC) (mp4a / 0x6134706D), 44100 Hz, stereo, fltp, delay 1024, 128 kb/s (default)
    Metadata:
      creation_time   : 2023-01-27T13:48:33.000000Z
      handler_name    : SoundHandler
      encoder         : Lavc58.54.100 aac
[Parsed_overlay_4 @ 0x558312f79e80] [framesync @ 0x558312f79fa8] Sync level 0
No more output streams to write to, finishing.
frame= 5801 fps= 84 q=-1.0 Lsize=  240246kB time=00:03:52.00 bitrate=8482.9kbits/s speed=3.35x    
[AVIOContext @ 0x55831256d0c0] Statistics: 0 seeks, 137 writeouts
video:236436kB audio:3625kB subtitle:0kB other streams:0kB global headers:0kB muxing overhead: 0.077271%
Input file #0 (/var/www/html/project/media/video/original/vlc-record-2023-01-27-14h44m38s-Il_mio_video_3.mp4-.mp4):
  Input stream #0:0 (audio): 9991 packets read (4639692 bytes); 9991 frames decoded (10230784 samples); 
  Input stream #0:1 (video): 5801 packets read (291260216 bytes); 5801 frames decoded; 
  Total: 15792 packets (295899908 bytes) demuxed
Input file #1 (/var/www/html/project/static/images/templates/logo.png):
  Input stream #1:0 (video): 1 packets read (111578 bytes); 1 frames decoded; 
  Total: 1 packets (111578 bytes) demuxed
Output file #0 (/var/www/html/project/media/video/watermarks/vlc-record-2023-01-27-14h44m38s-Il_mio_video_3.mp4-.mp4):
  Output stream #0:0 (video): 5801 frames encoded; 5801 packets muxed (242110093 bytes); 
  Output stream #0:1 (audio): 9991 frames encoded (10230784 samples); 9992 packets muxed (3712099 bytes); 
  Total: 15793 packets (245822192 bytes) muxed
[AVIOContext @ 0x55831258cec0] Statistics: 2 seeks, 941 writeouts
[libx264 @ 0x55831258bbc0] frame I:38    Avg QP:16.80  size:122349
[libx264 @ 0x55831258bbc0] frame P:2176  Avg QP:19.54  size: 67812
[libx264 @ 0x55831258bbc0] frame B:3587  Avg QP:20.44  size: 25063
[libx264 @ 0x55831258bbc0] consecutive B-frames: 14.5%  7.6%  4.2% 73.6%
[libx264 @ 0x55831258bbc0] mb I  I16..4: 13.7% 12.2% 74.1%
[libx264 @ 0x55831258bbc0] mb P  I16..4:  8.5% 10.2% 17.9%  P16..4: 23.3% 16.2% 16.8%  0.0%  0.0%    skip: 7.0%
[libx264 @ 0x55831258bbc0] mb B  I16..4:  2.5%  2.3%  3.9%  B16..8: 17.6% 11.0%  4.7%  direct:13.2%  skip:44.9%  L0:40.2% L1:30.2% BI:29.6%
[libx264 @ 0x55831258bbc0] 8x8 transform intra:27.0% inter:12.4%
[libx264 @ 0x55831258bbc0] coded y,uvDC,uvAC intra: 71.6% 43.5% 13.8% inter: 32.9% 22.7% 1.5%
[libx264 @ 0x55831258bbc0] i16 v,h,dc,p: 37% 27% 23% 13%
[libx264 @ 0x55831258bbc0] i8 v,h,dc,ddl,ddr,vr,hd,vl,hu: 19% 37% 20%  4%  4%  3%  5%  3%  5%
[libx264 @ 0x55831258bbc0] i4 v,h,dc,ddl,ddr,vr,hd,vl,hu: 16% 25% 17%  7%  7%  5%  9%  5%  9%
[libx264 @ 0x55831258bbc0] i8c dc,h,v,p: 55% 22% 18%  6%
[libx264 @ 0x55831258bbc0] Weighted P-Frames: Y:9.0% UV:2.8%
[libx264 @ 0x55831258bbc0] kb/s:8347.16
[aac @ 0x558312588cc0] Qavg: 479.239
[AVIOContext @ 0x558312576080] Statistics: 296049736 bytes read, 0 seeks
[AVIOContext @ 0x5583125750c0] Statistics: 111578 bytes read, 0 seeks
